<svg xmlns="http://www.w3.org/2000/svg" version="1.1" xmlns:xlink="http://www.w3.org/1999/xlink" xmlns:svgjs="http://svgjs.dev/svgjs" width="100%" height="100%" viewBox="0 0 1000 600"><rect width="1000" height="600" x="0" y="0" fill="#072c50"/><g><rect width="333.3333333333333" height="333.3333333333333" rx="13.333333333333334" ry="13.333333333333334" y="300.33370086184107" fill="#b88746" transform="matrix(0.4494600937765087,0,0,0.4494600937765087,0,90.10197787518962)" x="278.1113891601562"/><path d="M453.31393167153766 542.0003797383033L436.4447187582282 542.0003797383033L436.4447187582282 542.0003797383033L436.4447187582282 408.8695930931287L369.7780522877908 408.8695930931287L369.7780522877908 392.0003801798193L519.778051846275 392.0003801798193L519.778051846275 408.8695930931287L453.31393167153766 408.8695930931287L453.31393167153766 542.0003797383033Z " fill="#072c50" transform="matrix(0.4494600937765087,0,0,0.4494600937765087,0,90.10197787518962)"/><path d="M772.8895260948944 542.0003835530006L757.1157161803557 542.0003835530006L757.1157161803557 542.0003835530006L757.1157161803557 417.51444973345855L694.7780522985419 417.51444973345855L694.7780522985419 401.7406398189197L835.0377960326229 401.7406398189197L835.0377960326229 417.51444973345855L772.8895260948944 417.51444973345855L772.8895260948944 542.0003835530006ZM852.9490518875537 542.0003835530006L852.9490518875537 542.0003835530006Q846.5367140663775 542.0003835530006 841.1795710765341 538.7806865035493Q835.8224280866908 535.560989454098 832.6027310372394 530.2038464642546Q829.3830339877882 524.8467034744112 829.3830339877882 518.4343656532351L829.3830339877882 518.4343656532351L829.3830339877882 429.01336776721325L845.3732941241389 429.01336776721325L845.3732941241389 518.4343656532351Q845.3732941241389 521.5458375917806 847.5919088977103 523.7915086430785Q849.8375799490083 526.0371796943764 852.9490518875537 526.0371796943764L852.9490518875537 526.0371796943764L920.7520838701167 526.0371796943764Q923.8635558086621 526.0371796943764 926.217451970866 523.7915086430785Q928.5442918553434 521.5458375917806 928.5442918553434 518.4343656532351L928.5442918553434 518.4343656532351L928.5442918553434 429.01336776721325L944.5074957139676 429.01336776721325L944.5074957139676 518.4343656532351Q944.5074957139676 524.8467034744112 941.3148549422427 530.2038464642546Q938.0951578927915 535.560989454098 932.7380149029481 538.7806865035493Q927.3808719131047 542.0003835530006 920.7520838701167 542.0003835530006L920.7520838701167 542.0003835530006L852.9490518875537 542.0003835530006ZM980.5464576456412 542.0003835530006L964.583253787017 542.0003835530006L964.583253787017 542.0003835530006L964.583253787017 452.57938566697874Q964.583253787017 446.1670478458026 967.8029508364683 440.80990485595925Q971.0226478859196 435.45276186611585 976.379790875763 432.2330648166645Q981.7369338656064 429.01336776721325 988.1492716867825 429.01336776721325L988.1492716867825 429.01336776721325L1051.6503555108352 429.01336776721325L1051.6503555108352 444.9765716258374L988.1492716867825 444.9765716258374Q985.0377997482371 444.9765716258374 982.7921286969391 447.2222426771354Q980.5464576456412 449.46791372843336 980.5464576456412 452.57938566697874L980.5464576456412 452.57938566697874L980.5464576456412 542.0003835530006ZM1156.2769814791395 542.0003835530006L1064.7185376527254 542.0003835530006L1064.7185376527254 542.0003835530006L1064.7185376527254 392.00037983738633L1080.6817415113496 392.00037983738633L1080.6817415113496 429.01336776721325L1156.2769814791395 429.01336776721325Q1162.6893193003157 429.01336776721325 1168.046462290159 432.2330648166645Q1173.4036052800025 435.45276186611585 1176.623302329454 440.80990485595925Q1179.842999378905 446.1670478458026 1179.842999378905 452.57938566697874L1179.842999378905 452.57938566697874L1179.842999378905 518.4343656532351Q1179.842999378905 524.8467034744112 1176.623302329454 530.2038464642546Q1173.4036052800025 535.560989454098 1168.046462290159 538.7806865035493Q1162.6893193003157 542.0003835530006 1156.2769814791395 542.0003835530006L1156.2769814791395 542.0003835530006ZM1088.4739494965766 526.0371796943764L1088.4739494965766 526.0371796943764L1156.2769814791395 526.0371796943764Q1159.388453417685 526.0371796943764 1161.634124468983 523.7915086430785Q1163.8797955202808 521.5458375917806 1163.8797955202808 518.4343656532351L1163.8797955202808 518.4343656532351L1163.8797955202808 452.57938566697874Q1163.8797955202808 449.46791372843336 1161.634124468983 447.2222426771354Q1159.388453417685 444.9765716258374 1156.2769814791395 444.9765716258374L1156.2769814791395 444.9765716258374L1088.4739494965766 444.9765716258374Q1085.362477558031 444.9765716258374 1083.0356376735535 447.2222426771354Q1080.6817415113496 449.46791372843336 1080.6817415113496 452.57938566697874L1080.6817415113496 452.57938566697874L1080.6817415113496 518.4343656532351Q1080.6817415113496 521.5458375917806 1083.0356376735535 523.7915086430785Q1085.362477558031 526.0371796943764 1088.4739494965766 526.0371796943764ZM1217.6406193628 542.0003835530006L1217.6406193628 542.0003835530006Q1211.2012252638974 542.0003835530006 1205.844082274054 538.7806865035493Q1200.4869392842106 535.560989454098 1197.2672422347591 530.2038464642546Q1194.0746014630345 524.8467034744112 1194.0746014630345 518.4343656532351L1194.0746014630345 518.4343656532351L1194.0746014630345 452.57938566697874Q1194.0746014630345 446.1670478458026 1197.2672422347591 440.80990485595925Q1200.4869392842106 435.45276186611585 1205.844082274054 432.2330648166645Q1211.2012252638974 429.01336776721325 1217.6406193628 429.01336776721325L1217.6406193628 429.01336776721325L1285.4165950676365 429.01336776721325Q1292.0453831106247 429.01336776721325 1297.402526100468 432.2330648166645Q1302.7596690903115 435.45276186611585 1305.9793661397625 440.80990485595925Q1309.199063189214 446.1670478458026 1309.199063189214 452.57938566697874L1309.199063189214 452.57938566697874L1309.199063189214 518.4343656532351Q1309.199063189214 524.8467034744112 1305.9793661397625 530.2038464642546Q1302.7596690903115 535.560989454098 1297.402526100468 538.7806865035493Q1292.0453831106247 542.0003835530006 1285.4165950676365 542.0003835530006L1285.4165950676365 542.0003835530006L1217.6406193628 542.0003835530006ZM1217.6406193628 526.0371796943764L1217.6406193628 526.0371796943764L1285.4165950676365 526.0371796943764Q1288.5551232839084 526.0371796943764 1290.77373805748 523.7915086430785Q1293.0194091087778 521.5458375917806 1293.0194091087778 518.4343656532351L1293.0194091087778 518.4343656532351L1293.0194091087778 452.57938566697874Q1293.0194091087778 449.46791372843336 1290.77373805748 447.2222426771354Q1288.5551232839084 444.9765716258374 1285.4165950676365 444.9765716258374L1285.4165950676365 444.9765716258374L1217.6406193628 444.9765716258374Q1214.5291474242545 444.9765716258374 1212.2834763729566 447.2222426771354Q1210.0378053216587 449.46791372843336 1210.0378053216587 452.57938566697874L1210.0378053216587 452.57938566697874L1210.0378053216587 518.4343656532351Q1210.0378053216587 521.5458375917806 1212.2834763729566 523.7915086430785Q1214.5291474242545 526.0371796943764 1217.6406193628 526.0371796943764ZM1500.1081588272687 542.0003835530006L1383.225039048868 542.0003835530006L1383.225039048868 401.7406398189197L1500.1081588272687 401.7406398189197Q1506.5204966484448 401.7406398189197 1511.8776396382882 404.85211175746514Q1517.2347826281316 407.9635836960105 1520.3733108444035 413.32072668585386Q1523.4847827829485 418.67786967569725 1523.4847827829485 425.11726377459985L1523.4847827829485 425.11726377459985L1523.4847827829485 518.6237595973205Q1523.4847827829485 525.063153696223 1520.3733108444035 530.4202966860664Q1517.2347826281316 535.7774396759098 1511.8776396382882 538.8889116144553Q1506.5204966484448 542.0003835530006 1500.1081588272687 542.0003835530006L1500.1081588272687 542.0003835530006ZM1406.6016630045478 526.2265736384618L1406.6016630045478 526.2265736384618L1500.1081588272687 526.2265736384618Q1503.2196307658141 526.2265736384618 1505.465301817112 523.9809025871639Q1507.71097286841 521.7352315358659 1507.71097286841 518.6237595973205L1507.71097286841 518.6237595973205L1507.71097286841 425.11726377459985Q1507.71097286841 422.00579183605447 1505.465301817112 419.7601207847565Q1503.2196307658141 417.51444973345855 1500.1081588272687 417.51444973345855L1500.1081588272687 417.51444973345855L1406.6016630045478 417.51444973345855Q1403.4901910660024 417.51444973345855 1401.2445200147044 419.7601207847565Q1398.9988489634065 422.00579183605447 1398.9988489634065 425.11726377459985L1398.9988489634065 425.11726377459985L1398.9988489634065 518.6237595973205Q1398.9988489634065 521.7352315358659 1401.2445200147044 523.9809025871639Q1403.4901910660024 526.2265736384618 1406.6016630045478 526.2265736384618ZM1560.4977707127755 542.0003835530006L1544.507510576425 542.0003835530006L1544.507510576425 542.0003835530006L1544.507510576425 452.57938566697874Q1544.507510576425 446.1670478458026 1547.7272076258764 440.80990485595925Q1550.9469046753275 435.45276186611585 1556.3040476651709 432.2330648166645Q1561.6611906550143 429.01336776721325 1568.1005847539172 429.01336776721325L1568.1005847539172 429.01336776721325L1631.6016685779696 429.01336776721325L1631.6016685779696 444.9765716258374L1568.1005847539172 444.9765716258374Q1564.962056537645 444.9765716258374 1562.7434417640734 447.2222426771354Q1560.4977707127755 449.46791372843336 1560.4977707127755 452.57938566697874L1560.4977707127755 452.57938566697874L1560.4977707127755 542.0003835530006ZM1660.2272104125868 542.0003835530006L1644.264006553963 542.0003835530006L1644.264006553963 542.0003835530006L1644.264006553963 429.01336776721325L1660.2272104125868 429.01336776721325L1660.2272104125868 542.0003835530006ZM1660.2272104125868 407.9635836960105L1644.264006553963 407.9635836960105L1644.264006553963 407.9635836960105L1644.264006553963 392.00037983738633L1660.2272104125868 392.00037983738633L1660.2272104125868 407.9635836960105ZM1758.6038362260742 542.0003835530006L1740.097342261161 542.0003835530006L1740.097342261161 542.0003835530006L1677.759678379347 429.01336776721325L1696.4555662883458 429.01336776721325L1749.4588143545238 526.4159675825472L1802.4350061429745 429.01336776721325L1821.1308940519734 429.01336776721325L1758.6038362260742 542.0003835530006ZM1855.2218039873405 542.0003835530006L1855.2218039873405 542.0003835530006Q1848.8094661661644 542.0003835530006 1843.452323176321 538.7806865035493Q1838.0951801864776 535.560989454098 1834.875483137026 530.2038464642546Q1831.655786087575 524.8467034744112 1831.655786087575 518.4343656532351L1831.655786087575 518.4343656532351L1831.655786087575 452.57938566697874Q1831.655786087575 446.1670478458026 1834.875483137026 440.80990485595925Q1838.0951801864776 435.45276186611585 1843.452323176321 432.2330648166645Q1848.8094661661644 429.01336776721325 1855.2218039873405 429.01336776721325L1855.2218039873405 429.01336776721325L1923.0248359699035 429.01336776721325Q1929.6536240128917 429.01336776721325 1935.0107670027346 432.2330648166645Q1940.3679099925785 435.45276186611585 1943.5876070420295 440.80990485595925Q1946.7802478137546 446.1670478458026 1946.7802478137546 452.57938566697874L1946.7802478137546 452.57938566697874L1946.7802478137546 493.488477589419L1847.6460462239256 493.488477589419L1847.6460462239256 518.4343656532351Q1847.6460462239256 521.5458375917806 1849.8646609974971 523.7915086430785Q1852.110332048795 526.0371796943764 1855.2218039873405 526.0371796943764L1855.2218039873405 526.0371796943764L1946.7802478137546 526.0371796943764L1946.7802478137546 542.0003835530006L1855.2218039873405 542.0003835530006ZM1847.6460462239256 452.57938566697874L1847.6460462239256 477.5252737307948L1930.6276500110448 477.5252737307948L1930.6276500110448 452.57938566697874Q1930.6276500110448 449.46791372843336 1928.381978959747 447.2222426771354Q1926.136307908449 444.9765716258374 1923.0248359699035 444.9765716258374L1923.0248359699035 444.9765716258374L1855.2218039873405 444.9765716258374Q1852.110332048795 444.9765716258374 1849.8646609974971 447.2222426771354Q1847.6460462239256 449.46791372843336 1847.6460462239256 452.57938566697874L1847.6460462239256 452.57938566697874Z " fill="#b88746" transform="matrix(0.4494600937765087,0,0,0.4494600937765087,0,90.10197787518962)"/></g></svg>